<?xml version="1.0" ?>
<svg viewBox="0 0 512 512" xmlns="http://www.w3.org/2000/svg" fill="none">
  <g id="Green_economic">
    <path d="M339.25,181.44a82,82,0,1,0-82,82A82.07,82.07,0,0,0,339.25,181.44Z" stroke="#ffffff" stroke-width="15"/>
    <path d="M232.57,223.2v-17h25a7.61,7.61,0,0,0,7.6-7.6v-2.26a7.61,7.61,0,0,0-7.6-7.6h-.25a24.6,24.6,0,0,1-8.5-47.68V128.88h17v10.67H283v17H257.31a7.6,7.6,0,0,0,0,15.19h.25a24.63,24.63,0,0,1,24.6,24.6v2.26a24.64,24.64,0,0,1-16.35,23.17v13.11h-17V223.2Z" stroke="#ffffff" stroke-width="15"/>
    <path d="M342.88,324c-18.17-.86-51.89,1.14-76.61,23.6V301.39a119.28,119.28,0,1,0-18,0v46c-24.7-22.3-58.3-24.28-76.41-23.42a23.88,23.88,0,0,0-22.8,22.8c-.88,18.58,1.22,53.46,25.18,78.31,17.26,17.91,42.45,27.23,74.92,27.75,1,0,18.51,0,20.94-.13,30.3-1.28,53.95-10.55,70.41-27.62,24-24.85,26.05-59.73,25.17-78.31A23.87,23.87,0,0,0,342.88,324Z" stroke="#ffffff" stroke-width="15"/>
  </g>
</svg>
